<svg width="24" height="24" viewBox="0 0 24 24" fill="none" xmlns="http://www.w3.org/2000/svg">
<path fill-rule="evenodd" clip-rule="evenodd" d="M4.32606 6.75049C4.45782 4.64235 6.20602 3 8.31827 3H16.6816C18.7938 3 20.542 4.64235 20.6738 6.75049L21.2988 16.7505C21.4427 19.0533 19.6139 21 17.3066 21H7.69327C5.38599 21 3.55714 19.0533 3.70106 16.7505L4.32606 6.75049ZM10.4999 8C10.4999 7.44772 10.0522 7 9.49992 7C8.94764 7 8.49992 7.44772 8.49992 8C8.49992 10.2091 10.2908 12 12.4999 12C14.7091 12 16.4999 10.2091 16.4999 8C16.4999 7.44772 16.0522 7 15.4999 7C14.9476 7 14.4999 7.44772 14.4999 8C14.4999 9.10457 13.6045 10 12.4999 10C11.3954 10 10.4999 9.10457 10.4999 8Z" fill="currentColor"/>
</svg>
