<svg width="14" height="14" viewBox="0 0 14 14" fill="none" xmlns="http://www.w3.org/2000/svg">
<path d="M1.6084 5.92881L2.11487 8.80116C2.2827 9.75298 3.19036 10.3885 4.14217 10.2207L5.88915 9.91265M1.6084 5.92881L1.5071 5.35434C1.33927 4.40252 1.97482 3.49487 2.92663 3.32704L6.94793 2.61797C7.89975 2.45014 8.8074 3.08569 8.97523 4.0375C9.03117 4.35477 8.81932 4.65733 8.50205 4.71327L1.6084 5.92881ZM9.33343 7.00001V8.16667L10.3057 9.1389M12.8334 8.16667C12.8334 10.0997 11.2664 11.6667 9.33343 11.6667C7.40043 11.6667 5.83343 10.0997 5.83343 8.16667C5.83343 6.23368 7.40043 4.66667 9.33343 4.66667C11.2664 4.66667 12.8334 6.23368 12.8334 8.16667Z" stroke="currentColor" stroke-width="1.2" stroke-linecap="round" stroke-linejoin="round"/>
</svg>
