<svg width="24" height="24" viewBox="0 0 24 24" fill="none" xmlns="http://www.w3.org/2000/svg">
<path d="M20.2071 3.7931C18.9881 2.57417 17.0119 2.57418 15.7929 3.79312L12.1716 7.41446C11.4214 8.1646 11 9.18202 11 10.2429V12.0003C11 12.2655 11.1054 12.5199 11.2929 12.7074C11.4804 12.8949 11.7348 13.0003 12 13.0003L13.7573 13.0003C14.8182 13.0003 15.8356 12.5788 16.5858 11.8287L20.2071 8.2073C21.4261 6.98834 21.4261 5.01203 20.2071 3.7931Z" fill="currentColor"/>
<path d="M6 11.0003C4.34315 11.0003 3 12.3434 3 14.0003C3 15.6571 4.34315 17.0003 6 17.0003H16C16.5523 17.0003 17 17.448 17 18.0003C17 18.5526 16.5523 19.0003 16 19.0003H12C11.4477 19.0003 11 19.448 11 20.0003C11 20.5526 11.4477 21.0003 12 21.0003H16C17.6569 21.0003 19 19.6571 19 18.0003C19 16.3434 17.6569 15.0003 16 15.0003H6C5.44772 15.0003 5 14.5526 5 14.0003C5 13.448 5.44772 13.0003 6 13.0003H8C8.55228 13.0003 9 12.5526 9 12.0003C9 11.448 8.55228 11.0003 8 11.0003H6Z" fill="currentColor"/>
</svg>
