<svg width="24" height="24" viewBox="0 0 24 24" fill="none" xmlns="http://www.w3.org/2000/svg">
<path d="M14.0019 2.40144C14.0019 0.917322 12.077 0.334547 11.2538 1.5694L3.18804 13.668C2.52349 14.6648 3.23807 16.0001 4.43612 16.0001H10.0019V21.5987C10.0019 23.0828 11.9267 23.6656 12.7499 22.4307L20.8157 10.3321C21.4802 9.33528 20.7656 8.00006 19.5676 8.00006H14.0019V2.40144Z" fill="currentColor"/>
<path d="M15.9088 21.4592C15.6102 21.9238 15.7447 22.5425 16.2092 22.8412C16.6738 23.1398 17.2925 23.0053 17.5912 22.5408L15.9088 21.4592ZM21.25 15L22.2278 14.7905C22.1429 14.3945 21.8276 14.0887 21.4291 14.0162C21.0307 13.9436 20.6278 14.1186 20.4088 14.4592L21.25 15ZM21.7722 22.2095C21.8879 22.7496 22.4195 23.0935 22.9595 22.9778C23.4996 22.8621 23.8435 22.3305 23.7278 21.7905L21.7722 22.2095ZM17.5912 22.5408L22.0912 15.5408L20.4088 14.4592L15.9088 21.4592L17.5912 22.5408ZM20.2722 15.2095L21.7722 22.2095L23.7278 21.7905L22.2278 14.7905L20.2722 15.2095ZM18 21.5H22V19.5H18V21.5Z" fill="currentColor"/>
</svg>
