<svg width="12" height="12" viewBox="0 0 12 12" fill="none" xmlns="http://www.w3.org/2000/svg">
<path d="M4.58585 1.58556C5.36679 0.805321 6.63269 0.80425 7.41411 1.58573C8.1952 2.36688 8.19545 3.63364 7.41394 4.41444C7.15179 4.67635 6.83489 4.85048 6.5 4.93667V8.5C6.5 8.77614 6.27614 9 6 9C5.72386 9 5.5 8.77614 5.5 8.5V4.93699C5.16492 4.85093 4.84782 4.67669 4.5855 4.4141C3.80544 3.63321 3.80412 2.36658 4.58585 1.58556Z" fill="white"/>
<path d="M4.09488 7.67302C4.366 7.62062 4.54331 7.35835 4.49092 7.08722C4.43852 6.8161 4.17625 6.63879 3.90512 6.69118C3.12922 6.84114 2.44099 7.07734 1.93252 7.38991C1.44505 7.68955 1 8.14102 1 8.75019C1 9.179 1.22544 9.53301 1.51522 9.79944C1.80457 10.0655 2.19566 10.2821 2.6368 10.4536C3.52224 10.798 4.71148 11.0002 6 11.0002C7.28852 11.0002 8.47776 10.798 9.3632 10.4536C9.80434 10.2821 10.1954 10.0655 10.4848 9.79944C10.7746 9.53301 11 9.179 11 8.75019C11 8.14102 10.5549 7.68955 10.0675 7.38991C9.55901 7.07734 8.87078 6.84114 8.09487 6.69118C7.82375 6.63879 7.56148 6.8161 7.50908 7.08722C7.45669 7.35835 7.634 7.62062 7.90513 7.67302C8.61094 7.80942 9.1727 8.0137 9.54381 8.24182C9.93591 8.48285 10 8.67225 10 8.75019C10 8.80463 9.9736 8.911 9.80795 9.0633C9.64188 9.216 9.37396 9.37649 9.00076 9.52163C8.25752 9.81066 7.19676 10.0002 6 10.0002C4.80324 10.0002 3.74248 9.81066 2.99924 9.52163C2.62604 9.37649 2.35812 9.216 2.19205 9.0633C2.0264 8.911 2 8.80463 2 8.75019C2 8.67225 2.06409 8.48285 2.4562 8.24182C2.82729 8.0137 3.38906 7.80942 4.09488 7.67302Z" fill="white"/>
</svg>
