<svg width="24" height="25" viewBox="0 0 24 25" fill="none" xmlns="http://www.w3.org/2000/svg">
<path fill-rule="evenodd" clip-rule="evenodd" d="M12 6.66667C12.5523 6.66667 13 7.11438 13 7.66667V11.6667H17C17.5523 11.6667 18 12.1144 18 12.6667C18 13.219 17.5523 13.6667 17 13.6667H13V17.6667C13 18.219 12.5523 18.6667 12 18.6667C11.4477 18.6667 11 18.219 11 17.6667V13.6667H7C6.44772 13.6667 6 13.219 6 12.6667C6 12.1144 6.44772 11.6667 7 11.6667H11V7.66667C11 7.11438 11.4477 6.66667 12 6.66667Z" fill="currentColor"/>
</svg>
