<svg width="24" height="24" viewBox="0 0 24 24" fill="none" xmlns="http://www.w3.org/2000/svg">
<path d="M7.04284 17C8.32397 18.2359 10.0895 19 12 19C15.866 19 19 15.866 19 12C19 11.4477 19.4477 11 20 11C20.5523 11 21 11.4477 21 12C21 16.9706 16.9706 21 12 21C9.72357 21 7.60792 20.1538 6 18.7559V20C6 20.5523 5.55229 21 5 21C4.44771 21 4 20.5523 4 20V17C4 15.8954 4.89543 15 6 15H8.75C9.30229 15 9.75 15.4477 9.75 16C9.75 16.5523 9.30229 17 8.75 17H7.04284Z" fill="currentColor"/>
<path d="M5 12C5 12.5523 4.55228 13 4 13C3.44772 13 3 12.5523 3 12C3 7.02944 7.02944 3 12 3C14.282 3 16.4025 3.8504 18.0118 5.2544V4C18.0118 3.44772 18.4596 3 19.0118 3C19.5641 3 20.0118 3.44772 20.0118 4V7C20.0118 8.10457 19.1164 9 18.0118 9H15.0118C14.4596 9 14.0118 8.55229 14.0118 8C14.0118 7.44771 14.4596 7 15.0118 7H16.9572C15.676 5.76414 13.9105 5 12 5C8.13401 5 5 8.13401 5 12Z" fill="currentColor"/>
<path d="M10.75 12C10.75 12.6904 11.3096 13.25 12 13.25C12.6904 13.25 13.25 12.6904 13.25 12C13.25 11.3096 12.6904 10.75 12 10.75C11.3096 10.75 10.75 11.3096 10.75 12Z" fill="currentColor"/>
</svg>
