<svg width="24" height="24" viewBox="0 0 24 24" fill="none" xmlns="http://www.w3.org/2000/svg">
<path d="M13.5 6.5C13.5 4.01472 11.4853 2 9 2C6.51471 2 4.5 4.01472 4.5 6.5C4.5 8.98528 6.51471 11 9 11C11.4853 11 13.5 8.98528 13.5 6.5Z" fill="currentColor"/>
<path d="M17.5 6.5C17.5 5.11929 16.3807 4 15 4C14.4477 4 14 3.55228 14 3C14 2.44772 14.4477 2 15 2C17.4853 2 19.5 4.01472 19.5 6.5C19.5 8.98528 17.4853 11 15 11C14.4477 11 14 10.5523 14 10C14 9.44772 14.4477 9 15 9C16.3807 9 17.5 7.88071 17.5 6.5Z" fill="currentColor"/>
<path d="M17.1276 20.0804C16.6032 20.6608 15.8213 21 15.0002 21H3.00017C2.179 21 1.39714 20.6608 0.872696 20.0804C0.330999 19.4808 0.0706369 18.6187 0.371384 17.7176C1.49721 14.3444 4.9937 12 9.00017 12C13.0066 12 16.5031 14.3444 17.6289 17.7176C17.9297 18.6187 17.6693 19.4808 17.1276 20.0804Z" fill="currentColor"/>
<path d="M21.0001 21C21.8212 21 22.6031 20.6609 23.1276 20.0805C23.6693 19.481 23.9297 18.6188 23.629 17.7177C22.8312 15.3273 20.8359 13.4523 18.334 12.5662C17.8134 12.3818 17.2419 12.6544 17.0575 13.1749C16.8731 13.6955 17.1457 14.267 17.6663 14.4514C19.6659 15.1597 21.154 16.6196 21.7318 18.3509C21.7808 18.4975 21.7533 18.6182 21.6436 18.7396C21.5167 18.8801 21.2836 19 21.0001 19H20.5001C19.9478 19 19.5001 19.4477 19.5001 20C19.5001 20.5523 19.9478 21 20.5001 21H21.0001Z" fill="currentColor"/>
</svg>
