<svg width="25" height="24" viewBox="0 0 25 24" fill="none" xmlns="http://www.w3.org/2000/svg">
<path fill-rule="evenodd" clip-rule="evenodd" d="M2.5 8C2.5 5.79086 4.29086 4 6.5 4H18.5C20.7091 4 22.5 5.79086 22.5 8V16C22.5 18.2091 20.7091 20 18.5 20H6.5C4.29086 20 2.5 18.2091 2.5 16V8ZM11.7929 7.79289C12.1834 7.40237 12.8166 7.40237 13.2071 7.79289L16.2071 10.7929C16.5976 11.1834 16.5976 11.8166 16.2071 12.2071C15.8166 12.5976 15.1834 12.5976 14.7929 12.2071L13.5 10.9142V15.5C13.5 16.0523 13.0523 16.5 12.5 16.5C11.9477 16.5 11.5 16.0523 11.5 15.5V10.9142L10.2071 12.2071C9.81658 12.5976 9.18342 12.5976 8.79289 12.2071C8.40237 11.8166 8.40237 11.1834 8.79289 10.7929L11.7929 7.79289Z" fill="currentColor"/>
</svg>
